PathFileType	4	(X/Y/Z)	 s11c0303.trc
DataRate	CameraRate	NumFrames	NumMarkers	Units	OrigDataRate	OrigDataStartFrame	OrigNumFrames
200	200	4	48	mm	200	501	2000
Frame#	Time	racr			lacr			c7			jug			rlel			rdr			llel			ldr			s2			lic			ric			lasi			rasi			rpsi			lpsi			rgt			lgt			rth1			rth2			rth3			rth4			rlfc			rmfc			rsh1			rsh2			rsh3			rsh4			rlmal			rcal			rtoe			rmt5			lth1			lth2			lth4			lth3			llfc			lmfc			llmal			lcal			lmt5			lsh1			lsh2			lsh3			lsh4			ltoe			SBIKE			LBIKE			RBIKE			
		X1	Y1	Z1	X2	Y2	Z2	X3	Y3	Z3	X4	Y4	Z4	X5	Y5	Z5	X6	Y6	Z6	X7	Y7	Z7	X8	Y8	Z8	X9	Y9	Z9	X10	Y10	Z10	X11	Y11	Z11	X12	Y12	Z12	X13	Y13	Z13	X14	Y14	Z14	X15	Y15	Z15	X16	Y16	Z16	X17	Y17	Z17	X18	Y18	Z18	X19	Y19	Z19	X20	Y20	Z20	X21	Y21	Z21	X22	Y22	Z22	X23	Y23	Z23	X24	Y24	Z24	X25	Y25	Z25	X26	Y26	Z26	X27	Y27	Z27	X28	Y28	Z28	X29	Y29	Z29	X30	Y30	Z30	X31	Y31	Z31	X32	Y32	Z32	X33	Y33	Z33	X34	Y34	Z34	X35	Y35	Z35	X36	Y36	Z36	X37	Y37	Z37	X38	Y38	Z38	X39	Y39	Z39	X40	Y40	Z40	X41	Y41	Z41	X42	Y42	Z42	X43	Y43	Z43	X44	Y44	Z44	X45	Y45	Z45	X46	Y46	Z46	X47	Y47	Z47	X48	Y48	Z48	
501	2.5050	423.115733	1363.468879	-104.683720	420.806182	1384.578661	-390.186333	327.770008	1513.116216	-241.214995	348.496890	1339.180470	-249.034006	578.279508	1147.928058	-39.539516	796.349511	928.800782	-56.726330	551.200889	1123.683384	-453.094588	811.700711	918.742157	-411.988512	-199.066433	1197.449015	-250.927791	10.342606	1247.898524	-448.953857	24.977167	1220.444573	-48.186316	42.712064	1173.747458	-413.847085	63.930148	1158.693150	-81.080106	-184.773564	1285.071768	-170.501103	-166.647129	1280.429750	-282.786745	-38.296636	1064.097515	-31.021404	-58.889201	1116.177937	-466.926550	49.989221	948.305357	-25.749230	120.228557	894.699779	-36.578018	153.979956	815.476754	-54.417691	148.346583	917.972068	-44.274484	214.079244	728.912518	-69.319826	216.323068	712.321531	-195.006492	141.981419	583.265700	-59.873846	125.993831	498.670487	-80.064114	70.356371	431.218941	-84.227671	149.447375	492.107290	-111.637302	1.724260	316.489040	-101.847566	-62.969477	302.727257	-151.970410	216.734616	242.539353	-136.819261	142.602407	222.248617	-69.666481	79.452030	1053.490515	-484.602791	164.291123	1041.915276	-482.417347	179.998139	1074.305854	-473.647030	235.024228	986.029623	-482.334005	356.785903	917.436203	-458.867890	374.231910	918.097902	-332.397029	248.331104	506.585088	-409.189287	196.408190	456.808480	-370.859032	402.953131	433.386480	-440.046991	325.642448	794.970553	-469.884655	331.205457	711.772552	-449.291869	293.682967	632.505073	-438.542885	361.841698	710.610922	-426.355346	494.106545	470.104911	-371.640930	-206.779669	949.152999	-262.104115	1.215231	82.494665	-460.813983	-15.413987	81.045471	-62.397780	
502	2.5100	423.019025	1363.290382	-104.769504	420.792288	1384.574424	-390.125106	327.655561	1513.090173	-241.256654	348.329350	1339.254188	-249.080074	578.246389	1147.928404	-39.648157	796.363244	928.804225	-56.758219	551.147668	1123.678515	-453.068376	811.696499	918.732316	-411.992792	-199.178947	1197.404373	-250.899165	10.213986	1247.840070	-448.827471	24.817986	1220.435300	-48.174633	42.685543	1173.766410	-413.775701	63.820083	1158.759449	-81.020386	-184.839306	1284.971378	-170.581442	-166.796138	1280.408139	-282.742349	-38.498499	1063.982632	-30.977221	-58.910972	1116.220096	-466.894861	49.739585	948.257545	-25.687979	119.997456	894.560327	-36.573363	153.737812	815.335693	-54.400464	148.102264	917.847209	-44.273050	213.773246	728.742691	-69.348501	216.049570	712.174945	-194.975549	141.797169	583.031201	-59.843622	125.882497	498.441450	-80.109691	70.330368	430.901994	-84.196846	149.320082	491.830465	-111.642553	1.808806	316.029178	-101.814110	-62.847390	302.299193	-151.961364	216.898037	242.365281	-136.823776	142.797256	221.952114	-69.670813	79.419912	1053.598782	-484.616136	164.271924	1042.055352	-482.452970	179.977442	1074.458973	-473.648453	235.033761	986.187027	-482.363008	356.734441	917.591529	-458.958419	374.225901	918.291678	-332.478149	248.092554	506.886974	-409.245991	196.138637	457.118066	-370.963977	402.719227	433.734772	-440.071603	325.569131	795.188452	-469.939393	331.055084	711.990738	-449.328817	293.505852	632.716389	-438.541458	361.686363	710.829299	-426.374202	493.868312	470.391374	-371.614763	-206.779712	949.141370	-262.098222	1.222100	82.552960	-460.847487	-15.400416	81.047837	-62.400305	
503	2.5150	422.900648	1363.134144	-104.831150	420.816754	1384.600768	-390.062675	327.551529	1513.101546	-241.339942	348.201731	1339.267313	-249.110634	578.223315	1147.915615	-39.724326	796.415757	928.815811	-56.762630	551.129993	1123.671114	-453.092909	811.711016	918.741251	-412.020808	-199.263394	1197.356906	-250.899552	10.149630	1247.831647	-448.855322	24.670994	1220.403953	-48.143125	42.693390	1173.839707	-413.786444	63.734156	1158.780130	-80.964610	-184.885928	1284.851428	-170.670834	-166.903866	1280.380046	-282.701349	-38.692282	1063.890367	-30.943369	-58.940520	1116.325559	-466.871431	49.515811	948.109848	-25.686178	119.756280	894.432367	-36.565594	153.451455	815.169399	-54.418938	147.847008	917.713195	-44.294776	213.463815	728.580490	-69.374633	215.757830	712.070388	-194.990227	141.587860	582.773756	-59.834762	125.765459	498.178564	-80.083454	70.280718	430.586864	-84.182800	149.208376	491.548990	-111.656081	1.927899	315.570962	-101.795256	-62.711984	301.895878	-151.960906	216.851473	242.607435	-136.581396	143.004419	221.639495	-69.686030	79.406678	1053.743519	-484.609813	164.247690	1042.208008	-482.459608	179.944964	1074.610779	-473.638231	235.022441	986.354672	-482.392753	356.691421	917.812292	-459.022085	374.218562	918.515426	-332.534689	247.874807	507.170358	-409.250144	195.917970	457.385647	-370.937181	402.497168	434.020780	-440.030878	325.493378	795.387223	-469.984397	330.935089	712.176868	-449.342525	293.320097	632.961374	-438.559999	361.543073	711.034242	-426.399969	493.620906	470.701751	-371.610804	-206.778014	949.153495	-262.099689	1.231749	82.549539	-460.839292	-15.420153	81.061766	-62.382963	
504	2.5200	422.792094	1362.939371	-104.906184	420.826172	1384.602524	-389.994420	327.422987	1513.107673	-241.370059	348.079817	1339.236060	-249.138180	578.193832	1147.923722	-39.803348	796.425081	928.829407	-56.756913	551.117457	1123.701640	-453.158758	811.730599	918.757197	-412.056811	-199.377634	1197.326877	-250.855960	10.073560	1247.857357	-448.853177	24.501270	1220.386117	-48.110703	42.657057	1173.907763	-413.750011	63.615570	1158.797677	-80.893945	-184.929639	1284.782887	-170.759078	-167.027496	1280.350794	-282.661387	-38.910238	1063.799432	-30.947275	-58.963143	1116.413023	-466.840954	49.261621	948.020772	-25.654855	119.477573	894.276617	-36.567582	153.099654	815.012947	-54.451081	147.573195	917.544197	-44.268104	213.157518	728.425236	-69.391915	215.410350	711.959587	-195.061935	141.403098	582.472565	-59.822520	125.659076	497.940896	-80.078555	70.239148	430.265137	-84.180354	149.078779	491.327017	-111.681143	2.035545	315.229145	-101.796020	-62.574519	301.249286	-151.834649	217.038227	242.402058	-136.635273	143.220854	221.333926	-69.678265	79.377476	1053.898731	-484.627554	164.218994	1042.390435	-482.451990	179.916625	1074.776908	-473.639571	235.022582	986.529571	-482.422873	356.656773	918.047949	-459.066405	374.225947	918.760224	-332.611831	247.644480	507.486307	-409.292124	195.694011	457.636266	-370.929803	402.227334	434.345306	-439.992552	325.407563	795.618589	-470.072120	330.787463	712.444676	-449.403811	293.116429	633.286498	-438.584388	361.415512	711.259346	-426.447058	493.323072	471.082321	-371.592762	-206.787194	949.147602	-262.109621	1.217905	82.497435	-460.803878	-15.408319	81.055662	-62.394007	
